<?xml version="1.0" standalone="no"?>
<!DOCTYPE svg PUBLIC "-//W3C//DTD SVG 20010904//EN"
 "http://www.w3.org/TR/2001/REC-SVG-20010904/DTD/svg10.dtd">
<svg version="1.0" xmlns="http://www.w3.org/2000/svg"
 width="176.000000pt" height="176.000000pt" viewBox="0 0 176.000000 176.000000"
 preserveAspectRatio="xMidYMid meet">
<metadata>
Created by potrace 1.11, written by Peter Selinger 2001-2013
</metadata>
<g transform="translate(0.000000,176.000000) scale(0.100000,-0.100000)"
fill="#000000" stroke="none">
<path d="M1 1585 l2 -175 36 0 c41 0 31 -16 -14 -23 -24 -3 -21 -4 13 -6 32
-1 42 3 42 15 0 12 10 14 47 12 49 -3 70 -23 31 -31 -20 -4 -20 -4 5 -6 18 -1
27 4 27 14 0 12 13 15 55 15 41 0 55 -4 55 -14 0 -8 -10 -17 -22 -19 -13 -2 9
-4 47 -4 41 0 53 2 28 4 -32 3 -43 8 -43 21 0 10 3 13 8 7 4 -5 25 -10 47 -10
27 0 39 -4 37 -12 -1 -7 2 -13 8 -13 5 0 10 7 10 15 0 16 45 21 54 6 9 -14 -6
-21 -21 -9 -11 8 -12 7 -7 -6 5 -12 20 -16 65 -16 32 0 59 4 59 9 0 5 -9 7
-20 4 -11 -3 -20 0 -20 6 0 6 19 11 45 11 38 0 45 -3 45 -20 0 -11 4 -20 9
-20 5 0 7 10 3 22 -5 19 -2 21 28 15 18 -4 63 -7 101 -7 53 0 69 -3 69 -14 0
-8 -10 -16 -22 -18 -13 -2 36 -7 107 -10 80 -5 131 -3 133 2 6 17 64 11 85 -7
15 -13 21 -15 24 -5 5 14 79 17 85 3 4 -11 299 -26 297 -15 -1 5 -1 81 0 169
l1 160 62 -2 63 -1 -58 7 c-60 7 -78 20 -70 52 3 10 2 30 -1 44 l-6 25 -766 0
-765 0 2 -175z m1190 65 c19 -16 21 -21 10 -29 -15 -10 -48 -4 -57 11 -7 12 3
38 15 38 5 0 19 -9 32 -20z m43 -78 c82 -5 121 -11 124 -19 3 -9 -14 -14 -60
-15 l-63 -2 53 -3 c49 -4 52 -6 52 -31 0 -69 3 -68 -143 -61 -73 4 -153 7
-178 8 l-46 1 0 46 c0 37 4 47 21 54 21 9 21 9 -1 9 -22 1 -29 11 -17 24 3 3
36 3 73 0 36 -2 120 -8 185 -11z m281 -10 c-3 -3 -11 0 -18 7 -9 10 -8 11 6 5
10 -3 15 -9 12 -12z m-25 -62 c0 -5 -4 -10 -10 -10 -5 0 -10 5 -10 10 0 6 5
10 10 10 6 0 10 -4 10 -10z m34 2 c3 -5 -1 -9 -9 -9 -8 0 -12 4 -9 9 3 4 7 8
9 8 2 0 6 -4 9 -8z m-961 -42 c47 1 57 -2 57 -15 0 -15 -10 -16 -77 -11 -43 3
-88 6 -100 6 -15 0 -23 6 -23 16 0 14 7 15 43 9 23 -3 68 -6 100 -5z m-439
-25 c-7 -16 -24 -18 -73 -9 -50 10 -36 24 24 24 44 0 53 -3 49 -15z m79 9 c23
-4 37 -12 37 -21 0 -10 -6 -13 -16 -9 -9 3 -31 6 -50 6 -24 0 -34 5 -34 15 0
17 8 18 63 9z m517 -10 c0 -12 -9 -14 -42 -12 -59 4 -63 28 -4 28 35 0 46 -4
46 -16z m-370 -8 c0 -11 -13 -15 -50 -14 -36 0 -50 4 -50 14 0 10 14 14 50 14
37 0 50 -4 50 -14z m110 -11 c0 -11 -12 -15 -50 -15 -38 0 -50 4 -50 15 0 11
12 15 50 15 38 0 50 -4 50 -15z m147 -1 c-3 -3 -12 -4 -19 -1 -8 3 -5 6 6 6
11 1 17 -2 13 -5z"/>
<path d="M1098 1543 c12 -2 30 -2 40 0 9 3 -1 5 -23 4 -22 0 -30 -2 -17 -4z"/>
<path d="M1596 1738 c-4 -20 -3 -44 3 -80 0 -5 8 -8 16 -8 12 0 15 13 15 55 0
42 -4 55 -15 55 -8 0 -17 -10 -19 -22z"/>
<path d="M0 1326 c0 -29 22 -36 100 -34 43 1 47 2 18 5 -25 3 -38 9 -38 19 0
11 8 13 34 9 25 -5 35 -3 39 9 6 14 -5 16 -73 16 -78 0 -80 -1 -80 -24z"/>
<path d="M703 1343 c9 -2 23 -2 30 0 6 3 -1 5 -18 5 -16 0 -22 -2 -12 -5z"/>
<path d="M200 1329 c0 -5 20 -9 45 -9 34 0 45 -4 45 -16 0 -12 -7 -14 -30 -9
-19 4 -30 3 -30 -4 0 -7 22 -11 53 -11 30 0 103 -3 163 -7 105 -6 108 -6 94
12 -14 17 -13 18 3 12 11 -4 17 -2 17 7 0 10 -21 16 -72 21 -40 3 -84 6 -98 5
-14 0 -62 1 -107 3 -46 2 -83 0 -83 -4z m150 -23 c0 -9 -30 -14 -35 -6 -4 6 3
10 14 10 12 0 21 -2 21 -4z m40 -6 c0 -5 -7 -10 -15 -10 -8 0 -15 5 -15 10 0
6 7 10 15 10 8 0 15 -4 15 -10z m50 -5 c0 7 15 9 35 7 50 -6 43 -19 -10 -19
-35 0 -45 4 -45 16 0 14 2 14 10 1 5 -8 10 -10 10 -5z"/>
<path d="M600 1304 c0 -8 5 -12 10 -9 6 3 10 0 10 -9 0 -8 -6 -17 -12 -19 -7
-3 5 -5 27 -5 22 0 30 3 18 5 -13 2 -23 11 -23 20 0 11 6 14 23 9 12 -3 34 -6
49 -6 19 0 26 -4 22 -14 -6 -16 54 -26 152 -26 61 0 64 1 64 24 0 23 -4 25
-72 30 -213 16 -268 16 -268 0z"/>
<path d="M980 1270 c0 -28 3 -30 35 -30 30 0 35 3 35 24 0 16 -7 26 -22 30
-41 10 -48 7 -48 -24z"/>
<path d="M1133 1265 c0 -14 5 -25 12 -25 7 0 15 11 17 25 4 19 1 25 -12 25
-12 0 -17 -8 -17 -25z"/>
<path d="M1213 1283 c32 -4 37 -8 37 -29 0 -17 5 -24 20 -24 14 0 20 7 20 24
0 27 -23 37 -80 34 l-35 -1 38 -4z"/>
<path d="M1330 1256 c0 -25 2 -26 53 -26 28 0 76 -3 105 -6 51 -7 52 -6 52 20
0 23 -4 26 -37 26 -21 0 -68 3 -105 7 l-68 6 0 -27z"/>
<path d="M20 1230 c0 -26 4 -30 28 -30 25 0 29 4 30 30 1 27 -3 30 -29 30 -26
0 -29 -3 -29 -30z"/>
<path d="M123 1243 c9 -2 25 -2 35 0 9 3 1 5 -18 5 -19 0 -27 -2 -17 -5z"/>
<path d="M203 1243 c9 -2 25 -2 35 0 9 3 1 5 -18 5 -19 0 -27 -2 -17 -5z"/>
<path d="M1553 1244 c12 -12 80 -16 73 -5 -4 6 -23 11 -43 11 -20 0 -34 -3
-30 -6z"/>
<path d="M287 1224 c3 -9 0 -20 -8 -25 -10 -6 -3 -8 21 -8 19 1 27 3 18 6 -10
2 -18 11 -18 18 0 7 8 16 18 18 10 3 7 5 -10 6 -21 1 -26 -3 -21 -15z"/>
<path d="M373 1233 c33 -5 36 -30 5 -36 -21 -4 -20 -4 3 -6 21 -1 28 4 31 24
5 23 3 25 -31 24 -30 -2 -32 -3 -8 -6z"/>
<path d="M533 1223 c9 -2 23 -2 30 0 6 3 -1 5 -18 5 -16 0 -22 -2 -12 -5z"/>
<path d="M603 1223 c9 -2 17 -11 17 -18 0 -7 -8 -16 -17 -18 -10 -3 -2 -5 17
-5 19 0 29 2 23 5 -7 2 -13 11 -13 18 0 7 6 16 13 18 6 3 -4 5 -23 5 -19 0
-27 -2 -17 -5z"/>
<path d="M756 1212 c8 -5 4 -13 -12 -25 -13 -10 -24 -13 -24 -7 0 5 -11 10
-25 10 -24 0 -25 -2 -25 -65 0 -36 4 -65 10 -65 5 0 7 7 4 15 -4 9 0 15 10 15
9 0 16 -6 16 -12 0 -7 3 -24 7 -37 5 -22 4 -23 -20 -19 -15 3 -27 1 -27 -3 0
-5 7 -9 15 -9 8 0 15 -9 15 -20 0 -11 7 -20 15 -20 10 0 15 7 13 17 -2 14 4
17 33 15 26 -3 38 1 43 13 10 27 -4 38 -40 32 -30 -5 -34 -3 -34 16 0 32 13
46 46 51 16 3 47 8 69 11 45 8 76 -11 90 -55 8 -24 8 -24 16 -3 4 12 5 36 2
55 -3 18 -6 44 -7 58 -1 22 -7 26 -46 32 -62 9 -157 9 -144 0z"/>
<path d="M117 1194 c3 -9 0 -19 -7 -24 -8 -5 -1 -9 19 -12 17 -2 31 -1 31 4 0
4 -7 8 -15 8 -21 0 -19 28 3 33 10 3 7 5 -10 6 -21 1 -26 -3 -21 -15z"/>
<path d="M200 1201 c8 -6 18 -7 22 -5 4 3 8 -2 8 -10 0 -9 -9 -16 -20 -16 -11
0 -20 -4 -20 -10 0 -5 10 -10 22 -10 l21 0 -22 -19 c-28 -25 -36 -94 -13 -117
15 -15 16 -15 23 2 3 11 5 22 2 27 -2 4 11 7 30 7 21 0 41 7 52 20 22 25 96
28 115 5 7 -8 26 -15 43 -15 29 0 30 1 12 14 -11 8 -23 12 -27 10 -5 -3 -8 0
-8 5 0 6 12 11 28 12 20 1 15 4 -18 11 -25 5 -54 10 -65 9 -14 0 -16 2 -7 8
35 21 -65 48 -118 31 -11 -4 -15 2 -13 23 2 24 -2 27 -30 27 -23 0 -28 -3 -17
-9z"/>
<path d="M973 1028 c2 -181 2 -183 25 -186 26 -4 24 -15 23 168 0 74 -1 150
-1 168 0 27 -4 32 -25 32 l-25 0 3 -182z"/>
<path d="M445 1190 c3 -5 15 -10 26 -10 10 0 19 5 19 10 0 6 -12 10 -26 10
-14 0 -23 -4 -19 -10z"/>
<path d="M1130 1076 c0 -73 -4 -127 -10 -131 -5 -3 -10 -36 -10 -73 1 -52 5
-72 21 -91 11 -13 22 -22 25 -19 5 6 7 74 5 291 -1 123 -3 147 -16 147 -13 0
-15 -20 -15 -124z"/>
<path d="M1253 1013 c4 -104 7 -203 7 -220 0 -28 3 -33 25 -33 23 0 25 4 25
46 l0 46 39 -4 c22 -2 39 -1 39 2 0 3 0 16 1 29 1 23 2 23 19 8 24 -22 37 -21
61 4 16 17 18 25 8 40 -6 10 -19 17 -27 14 -8 -2 -33 -7 -55 -11 -22 -3 -46
-11 -52 -16 -17 -13 -17 5 -2 35 24 45 62 77 94 77 38 0 55 -13 85 -64 16 -26
25 -34 28 -25 3 8 10 17 16 21 7 5 5 16 -6 36 -10 16 -14 32 -11 36 4 4 1 11
-6 16 -9 5 -11 14 -6 26 11 26 13 92 3 107 -4 7 -8 -7 -8 -32 0 -35 -3 -41
-13 -32 -8 6 -12 23 -9 41 4 27 2 30 -22 30 -22 0 -26 -4 -26 -30 0 -16 -4
-30 -10 -30 -5 0 -10 14 -10 30 0 26 -4 30 -26 30 -24 0 -25 -2 -13 -17 10
-11 10 -14 2 -9 -9 5 -13 0 -13 -13 0 -12 -4 -21 -10 -21 -5 0 -10 14 -10 30
0 17 -4 30 -9 30 -5 0 -16 3 -25 6 -13 5 -16 -2 -16 -44 0 -28 -4 -54 -10 -57
-6 -4 -10 15 -10 49 0 54 -1 56 -26 56 l-27 0 6 -187z"/>
<path d="M523 1183 c9 -2 25 -2 35 0 9 3 1 5 -18 5 -19 0 -27 -2 -17 -5z"/>
<path d="M20 1171 c0 -6 9 -11 20 -11 11 0 20 -7 20 -16 0 -11 -6 -14 -21 -9
-19 6 -21 4 -17 -19 3 -14 0 -27 -6 -30 -6 -2 -1 -5 12 -5 15 -1 22 -7 22 -20
0 -14 -5 -18 -20 -14 -11 3 -20 0 -20 -6 0 -6 12 -11 28 -11 21 0 27 5 28 23
0 12 2 45 5 72 3 48 2 50 -24 53 -15 2 -27 -1 -27 -7z"/>
<path d="M440 1150 c0 -5 12 -10 28 -10 21 0 24 2 12 10 -20 13 -40 13 -40 0z"/>
<path d="M510 1125 c0 -22 4 -25 33 -24 30 2 30 2 5 6 -16 2 -28 10 -28 18 0
8 12 16 28 18 25 4 25 4 -5 6 -29 1 -33 -2 -33 -24z"/>
<path d="M603 1143 c9 -2 17 -11 17 -18 0 -7 -8 -15 -17 -17 -13 -3 -10 -6 10
-10 24 -5 27 -3 27 23 0 25 -4 29 -27 28 -17 -1 -21 -3 -10 -6z"/>
<path d="M100 1114 c0 -11 5 -14 16 -10 9 3 22 6 30 6 9 0 12 5 9 10 -10 17
-55 12 -55 -6z"/>
<path d="M100 1080 c0 -6 14 -10 30 -10 39 0 39 14 0 17 -17 1 -30 -2 -30 -7z"/>
<path d="M510 1045 c0 -21 4 -25 28 -24 23 2 24 2 5 6 -32 6 -29 31 5 36 25 4
25 4 -5 6 -29 1 -33 -2 -33 -24z"/>
<path d="M603 1059 c14 -8 22 -8 30 0 8 8 3 11 -18 11 -26 -1 -28 -2 -12 -11z"/>
<path d="M827 1044 c-11 -11 13 -44 32 -44 10 0 24 7 32 16 10 13 10 17 -2 25
-16 10 -53 12 -62 3z"/>
<path d="M105 1015 c0 -20 5 -25 25 -24 17 1 19 3 8 6 -26 6 -22 31 5 36 17 3
16 5 -8 6 -26 1 -30 -3 -30 -24z"/>
<path d="M309 1032 c-1 -4 -1 -11 0 -15 1 -5 -6 -6 -16 -3 -10 3 -24 2 -32 -3
-11 -7 -5 -11 22 -16 44 -9 69 -1 61 19 -6 16 -33 30 -35 18z"/>
<path d="M444 1021 c3 -5 15 -7 26 -4 28 7 25 13 -6 13 -14 0 -23 -4 -20 -9z"/>
<path d="M603 1023 c9 -2 23 -2 30 0 6 3 -1 5 -18 5 -16 0 -22 -2 -12 -5z"/>
<path d="M375 1010 c-12 -19 17 -42 43 -35 13 3 22 2 19 -2 -3 -4 -8 -52 -11
-105 l-7 -98 31 0 c33 0 30 -12 33 138 l2 82 -33 0 c-20 0 -35 6 -38 15 -7 17
-30 20 -39 5z"/>
<path d="M170 995 c0 -9 4 -14 9 -11 5 4 7 -3 4 -14 -4 -14 0 -20 10 -20 12 0
14 6 8 27 -8 30 -31 44 -31 18z"/>
<path d="M23 993 c9 -2 25 -2 35 0 9 3 1 5 -18 5 -19 0 -27 -2 -17 -5z"/>
<path d="M516 992 c-3 -3 -6 -24 -6 -48 0 -23 -5 -44 -10 -46 -7 -2 -7 -14 -1
-35 5 -18 6 -35 2 -38 -14 -8 0 -53 17 -57 28 -8 42 2 42 29 0 24 13 25 16 2
1 -5 2 -13 3 -18 0 -5 13 -11 29 -13 l27 -3 -22 -22 c-15 -15 -23 -35 -23 -58
0 -25 -4 -35 -16 -35 -8 0 -22 -7 -31 -16 -17 -17 -30 -10 -35 21 -2 14 3 20
17 20 14 0 21 8 23 28 l3 27 -70 0 c-43 0 -73 5 -77 12 -8 13 -6 102 3 133 3
11 2 17 -2 13 -5 -4 -13 -4 -19 1 -19 14 -83 20 -95 8 -7 -7 -11 -7 -11 -1 0
6 -14 11 -31 12 -27 1 -30 -2 -25 -21 4 -12 9 -33 12 -46 4 -22 3 -23 -12 -11
-12 11 -15 25 -11 57 4 37 2 43 -14 43 -15 0 -19 -7 -19 -34 0 -47 -11 -96
-21 -96 -5 0 -9 36 -9 80 l0 80 -30 0 -30 0 0 -95 c0 -52 4 -95 9 -95 14 0 20
-26 9 -41 -8 -11 -9 -11 -5 3 8 24 -4 30 -29 14 -12 -9 -34 -13 -48 -10 l-26
4 0 -370 0 -370 634 0 634 0 4 24 c3 13 1 31 -4 40 -5 9 -6 33 -3 54 4 31 1
45 -17 67 -18 23 -23 42 -23 87 0 55 6 70 20 48 11 -18 85 -51 97 -44 7 4 8 3
4 -4 -4 -7 -2 -12 4 -12 6 0 10 15 8 35 -1 19 -6 35 -11 35 -5 0 -7 -6 -4 -14
3 -8 -1 -17 -9 -20 -8 -3 -14 -1 -14 4 0 5 -7 16 -16 24 -11 12 -16 38 -17 97
-2 72 -3 77 -14 52 -8 -19 -12 -22 -13 -10 0 11 -6 17 -17 15 -13 -2 -19 4
-20 22 l-2 25 9 -25 c7 -22 8 -21 10 15 3 85 5 103 12 99 4 -2 9 0 13 6 4 6
-14 10 -49 10 l-56 0 0 -51 c0 -31 -4 -48 -10 -44 -5 3 -10 1 -10 -6 0 -8 -4
-8 -15 1 -13 11 -14 10 -9 -5 4 -9 2 -20 -5 -24 -7 -4 -13 -17 -14 -29 0 -11
-6 -18 -12 -14 -5 4 -19 6 -30 5 -16 -1 -17 -1 -2 3 9 3 14 10 11 15 -9 15 6
100 16 94 16 -10 50 33 46 57 -3 13 -5 43 -5 67 -1 39 -3 43 -22 38 -17 -4
-18 -3 -8 9 10 12 9 13 -5 8 -9 -3 -16 -1 -16 5 0 6 5 11 10 11 6 0 5 6 -2 14
-7 8 -16 12 -19 10 -4 -2 -21 -1 -39 3 l-32 6 23 13 c15 8 18 13 9 13 -26 1
-38 -13 -45 -54 -10 -55 -12 -57 -43 -38 -15 9 -28 18 -30 18 -1 1 7 22 18 46
13 29 19 63 18 99 -1 45 -2 47 -5 15 -4 -44 -21 -85 -36 -85 -5 0 -7 8 -4 19
4 16 0 18 -38 13 -28 -3 -45 0 -50 9 -6 9 -4 11 8 6 10 -3 17 -2 17 3 0 6 8
10 18 10 14 0 15 2 2 10 -13 9 -13 11 0 20 11 8 2 10 -36 8 -34 -2 -57 2 -70
12 -17 13 -18 13 -8 0 13 -17 7 -140 -7 -140 -5 0 -9 23 -9 50 0 45 -2 50 -22
51 -22 0 -22 1 -3 9 11 5 16 9 10 9 -5 1 -3 6 5 11 12 8 9 10 -11 10 -26 0
-27 -3 -34 -69 -4 -39 -4 -74 -1 -79 3 -6 -1 -12 -9 -16 -13 -4 -15 9 -15 84
0 53 -4 90 -10 90 -14 0 -12 27 3 33 7 3 5 6 -5 6 -12 1 -18 -6 -18 -19 0 -11
-4 -20 -8 -20 -5 0 -9 -16 -10 -36 -2 -46 -11 -74 -23 -74 -5 0 -9 14 -9 31 0
22 -5 32 -20 36 -11 3 -20 9 -20 14 0 5 11 7 25 3 20 -5 24 -3 19 10 -3 9 -15
16 -25 16 -26 0 -24 19 3 29 l22 8 -22 5 c-11 3 -23 3 -26 0z m-186 -113 c0
-7 10 -9 25 -5 19 5 25 2 25 -9 0 -20 -23 -29 -55 -21 -28 7 -36 46 -10 46 8
0 15 -5 15 -11z m23 -97 c-3 -12 -9 -22 -14 -22 -12 0 -11 7 2 32 13 25 20 19
12 -10z m530 -18 c3 -4 -4 -15 -16 -24 -23 -19 -47 -11 -47 16 0 14 50 20 63
8z m187 -38 c0 -3 -4 -8 -10 -11 -5 -3 -10 -1 -10 4 0 6 5 11 10 11 6 0 10 -2
10 -4z m-736 -23 c4 -9 3 -20 -2 -25 -6 -6 -11 1 -14 16 -6 29 6 35 16 9z
m506 -133 c0 -5 -2 -10 -4 -10 -3 0 -8 5 -11 10 -3 6 -1 10 4 10 6 0 11 -4 11
-10z m295 -79 c-3 -6 -11 -11 -16 -11 -5 0 -4 6 3 14 14 16 24 13 13 -3z
m-295 -31 c0 -5 -4 -10 -10 -10 -5 0 -10 5 -10 10 0 6 5 10 10 10 6 0 10 -4
10 -10z m171 -24 c-10 -18 -10 -29 -2 -45 10 -17 9 -21 -4 -21 -9 0 -13 -5
-10 -11 8 -12 -32 9 -52 28 -19 17 -17 20 17 27 19 3 34 15 42 31 6 14 14 23
16 20 3 -3 0 -16 -7 -29z m-803 -30 c27 -52 29 -74 7 -56 -8 7 -13 16 -10 20
3 5 1 11 -4 14 -12 8 -32 66 -22 66 4 0 17 -20 29 -44z m881 -28 c1 -31 -18
-19 -40 24 l-21 41 30 -24 c17 -13 31 -32 31 -41z m-279 32 c-12 -22 -40 -45
-40 -32 0 5 -15 12 -32 16 -25 5 -36 2 -45 -10 -15 -20 -45 -11 -37 11 3 8 17
15 29 15 13 0 27 5 30 10 4 6 29 10 55 9 42 -2 48 -5 40 -19z m110 -2 c0 -17
-32 -37 -60 -38 l-24 0 22 16 c12 8 20 19 17 24 -3 5 3 10 12 12 22 5 33 0 33
-14z m-95 -48 c-3 -5 -11 -10 -16 -10 -6 0 -7 5 -4 10 3 6 11 10 16 10 6 0 7
-4 4 -10z m55 -15 c0 -9 -6 -12 -16 -8 -13 5 -13 7 -2 14 17 11 18 11 18 -6z
m380 -1 c0 -8 -5 -12 -10 -9 -6 4 -8 11 -5 16 9 14 15 11 15 -7z m-40 -196 c0
-4 -4 -8 -9 -8 -6 0 -12 4 -15 8 -3 5 1 9 9 9 8 0 15 -4 15 -9z"/>
<path d="M1032 975 c0 -16 2 -22 5 -12 2 9 2 23 0 30 -3 6 -5 -1 -5 -18z"/>
<path d="M670 980 c0 -5 5 -10 11 -10 5 0 7 5 4 10 -3 6 -8 10 -11 10 -2 0 -4
-4 -4 -10z"/>
<path d="M6 899 c-3 -34 -6 -77 -6 -96 0 -33 2 -34 32 -31 l33 3 0 93 1 92
-27 0 c-25 0 -26 -3 -33 -61z"/>
<path d="M797 949 c8 -8 16 -8 30 0 16 9 14 10 -11 11 -22 0 -27 -3 -19 -11z"/>
<path d="M325 930 c3 -5 17 -10 31 -10 13 0 24 5 24 10 0 6 -14 10 -31 10 -17
0 -28 -4 -24 -10z"/>
<path d="M1040 881 c0 -55 2 -59 25 -63 25 -5 25 -4 25 58 0 62 -1 64 -25 64
-24 0 -25 -3 -25 -59z"/>
<path d="M1184 927 c-3 -8 -4 -47 -2 -88 3 -71 4 -74 28 -74 24 0 25 2 26 70
0 39 -4 78 -8 88 -10 20 -36 23 -44 4z"/>
<path d="M1579 931 c11 -7 11 -10 -2 -12 -12 -3 -14 -8 -7 -19 10 -17 15 -14
24 18 6 17 3 22 -11 22 -14 0 -15 -2 -4 -9z"/>
<path d="M1617 883 c-14 -13 -6 -33 13 -33 13 0 20 7 20 20 0 19 -20 27 -33
13z"/>
<path d="M1327 800 c3 -19 16 -42 27 -52 19 -15 19 -17 4 -18 -13 0 -18 -8
-18 -30 0 -27 2 -29 19 -21 16 9 18 6 15 -31 -2 -29 0 -38 8 -30 7 7 14 7 23
-1 14 -13 8 -40 -6 -31 -5 3 -9 0 -9 -5 0 -6 -5 -11 -12 -11 -6 0 -8 3 -4 7 6
7 -52 73 -65 73 -3 0 -4 -12 -1 -26 3 -17 9 -23 19 -20 9 4 21 -6 31 -24 14
-24 22 -28 42 -23 14 3 29 12 33 20 4 7 20 13 35 14 15 0 36 4 47 8 17 7 15
10 -17 20 -58 19 -65 35 -25 60 18 11 42 30 53 42 l19 21 -39 -20 c-29 -16
-42 -18 -56 -10 -16 10 -16 12 -1 28 9 9 18 17 21 16 3 -1 7 4 10 9 3 6 -14
11 -40 13 -25 1 -52 5 -60 9 -8 3 -19 7 -23 7 -5 1 -15 10 -23 21 -13 18 -14
17 -7 -15z"/>
<path d="M1372 811 c4 -21 42 -26 57 -8 10 12 6 15 -24 19 -28 3 -35 1 -33
-11z"/>
<path d="M1238 720 c41 -10 51 -18 32 -30 -12 -8 -10 -10 8 -10 17 0 22 6 22
25 0 23 -3 25 -47 24 -46 -1 -46 -1 -15 -9z"/>
<path d="M1435 320 c-4 -16 -11 -30 -17 -30 -6 0 -8 -3 -5 -6 8 -9 67 16 67
28 0 5 15 15 33 23 17 8 26 14 19 15 -7 0 -23 -5 -35 -12 -32 -17 -46 -18 -40
-2 3 8 1 14 -5 14 -6 0 -13 -13 -17 -30z"/>
<path d="M1434 228 c-3 -4 2 -8 10 -8 8 0 17 4 20 8 3 5 -2 9 -10 9 -8 0 -17
-4 -20 -9z"/>
<path d="M1720 221 c0 -5 9 -7 20 -4 11 3 20 7 20 9 0 2 -9 4 -20 4 -11 0 -20
-4 -20 -9z"/>
<path d="M1703 163 c-13 -2 -23 -8 -23 -13 0 -5 14 -4 30 1 27 10 42 21 23 18
-5 -1 -18 -4 -30 -6z"/>
<path d="M1652 107 c-9 -10 -4 -19 18 -39 19 -17 30 -21 30 -13 0 8 -10 21
-22 30 -20 13 -21 17 -8 25 8 5 10 10 4 10 -6 0 -16 -6 -22 -13z"/>
<path d="M1334 83 c3 -19 1 -33 -5 -33 -6 0 -7 -4 -4 -10 4 -6 -1 -7 -11 -3
-11 4 -15 3 -10 -5 3 -6 1 -14 -5 -18 -7 -4 -9 -3 -5 4 3 6 2 13 -4 17 -5 3
-10 -3 -10 -14 0 -19 6 -21 72 -21 l71 0 -24 27 c-13 16 -30 32 -37 36 -7 5
-18 18 -23 30 -8 18 -9 16 -5 -10z"/>
<path d="M1622 47 c-7 -8 -7 -17 2 -30 25 -33 46 -15 30 27 -7 19 -18 20 -32
3z"/>
<path d="M1470 10 c0 -6 7 -10 15 -10 8 0 15 2 15 4 0 2 -7 6 -15 10 -8 3 -15
1 -15 -4z"/>
</g>
</svg>
